<?xml version="1.0" encoding="UTF-8" standalone="no"?>
<!DOCTYPE svg PUBLIC "-//W3C//DTD SVG 1.1//EN"
 "http://www.w3.org/Graphics/SVG/1.1/DTD/svg11.dtd">
<!-- Generated by graphviz version 2.40.1 (20161225.0304)
 -->
<!-- Title: dependencies Pages: 1 -->
<svg width="2723pt" height="284pt"
 viewBox="0.00 0.00 2723.00 284.00" xmlns="http://www.w3.org/2000/svg" xmlns:xlink="http://www.w3.org/1999/xlink">
<g id="graph0" class="graph" transform="scale(1 1) rotate(0) translate(4 280)">
<title>dependencies</title>
<polygon fill="#ffffff" stroke="transparent" points="-4,4 -4,-280 2719,-280 2719,4 -4,4"/>
<text text-anchor="start" x="1336.5091" y="-42.4" font-family="sans-serif" font-weight="bold" font-size="14.00" fill="#000000">Legend</text>
<polygon fill="#ffffb3" stroke="transparent" points="1123.5,-10 1123.5,-30 1143.5,-30 1143.5,-10 1123.5,-10"/>
<text text-anchor="start" x="1147.129" y="-15.4" font-family="sans-serif" font-size="14.00" fill="#000000"> &#160;Declarations</text>
<polygon fill="#8dd3c7" stroke="transparent" points="1236.5,-10 1236.5,-30 1256.5,-30 1256.5,-10 1236.5,-10"/>
<text text-anchor="start" x="1260.2251" y="-15.4" font-family="sans-serif" font-size="14.00" fill="#000000"> &#160;Module</text>
<polygon fill="#80b1d3" stroke="transparent" points="1322.5,-10 1322.5,-30 1342.5,-30 1342.5,-10 1322.5,-10"/>
<text text-anchor="start" x="1346.2812" y="-15.4" font-family="sans-serif" font-size="14.00" fill="#000000"> &#160;Bootstrap</text>
<polygon fill="#fdb462" stroke="transparent" points="1419.5,-10 1419.5,-30 1439.5,-30 1439.5,-10 1419.5,-10"/>
<text text-anchor="start" x="1443.1732" y="-15.4" font-family="sans-serif" font-size="14.00" fill="#000000"> &#160;Providers</text>
<polygon fill="#fb8072" stroke="transparent" points="1515.5,-10 1515.5,-30 1535.5,-30 1535.5,-10 1515.5,-10"/>
<text text-anchor="start" x="1539.2258" y="-15.4" font-family="sans-serif" font-size="14.00" fill="#000000"> &#160;Exports</text>
<g id="clust1" class="cluster">
<title>cluster_NgxAmapModule</title>
<polygon fill="none" stroke="#000000" stroke-dasharray="1,5" points="8,-70 8,-268 2707,-268 2707,-70 8,-70"/>
</g>
<g id="clust2" class="cluster">
<title>cluster_NgxAmapModule_declarations</title>
<polygon fill="none" stroke="#000000" points="44,-78 44,-130 2672,-130 2672,-78 44,-78"/>
</g>
<g id="clust19" class="cluster">
<title>cluster_NgxAmapModule_exports</title>
<polygon fill="none" stroke="#000000" points="16,-208 16,-260 2699,-260 2699,-208 16,-208"/>
</g>
<!-- NgxAmapComponent -->
<g id="node1" class="node">
<title>NgxAmapComponent</title>
<polygon fill="#ffffb3" stroke="#000000" points="2663.6512,-122 2524.3488,-122 2524.3488,-86 2663.6512,-86 2663.6512,-122"/>
<text text-anchor="middle" x="2594" y="-99.8" font-family="Times,serif" font-size="14.00" fill="#000000">NgxAmapComponent</text>
</g>
<!-- NgxAmapModule -->
<g id="node16" class="node">
<title>NgxAmapModule</title>
<polygon fill="#8dd3c7" stroke="#000000" points="1383.8683,-187 1380.8683,-191 1359.8683,-191 1356.8683,-187 1266.1317,-187 1266.1317,-151 1383.8683,-151 1383.8683,-187"/>
<text text-anchor="middle" x="1325" y="-164.8" font-family="Times,serif" font-size="14.00" fill="#000000">NgxAmapModule</text>
</g>
<!-- NgxAmapComponent&#45;&gt;NgxAmapModule -->
<g id="edge1" class="edge">
<title>NgxAmapComponent&#45;&gt;NgxAmapModule</title>
<path fill="none" stroke="#000000" d="M2538.4597,-122.1686C2538.4597,-141.0898 2538.4597,-168 2538.4597,-168 2538.4597,-168 1393.9378,-168 1393.9378,-168"/>
<polygon fill="#000000" stroke="#000000" points="1393.9378,-164.5001 1383.9378,-168 1393.9377,-171.5001 1393.9378,-164.5001"/>
</g>
<!-- AmapMarkerDirective -->
<g id="node2" class="node">
<title>AmapMarkerDirective</title>
<polygon fill="#ffffb3" stroke="#000000" points="2505.9904,-122 2362.0096,-122 2362.0096,-86 2505.9904,-86 2505.9904,-122"/>
<text text-anchor="middle" x="2434" y="-99.8" font-family="Times,serif" font-size="14.00" fill="#000000">AmapMarkerDirective</text>
</g>
<!-- AmapMarkerDirective&#45;&gt;NgxAmapModule -->
<g id="edge2" class="edge">
<title>AmapMarkerDirective&#45;&gt;NgxAmapModule</title>
<path fill="none" stroke="#000000" d="M2373.3969,-122.2667C2373.3969,-140.5552 2373.3969,-166 2373.3969,-166 2373.3969,-166 1393.991,-166 1393.991,-166"/>
<polygon fill="#000000" stroke="#000000" points="1393.991,-162.5001 1383.991,-166 1393.991,-169.5001 1393.991,-162.5001"/>
</g>
<!-- AmapInfoWindowComponent -->
<g id="node3" class="node">
<title>AmapInfoWindowComponent</title>
<polygon fill="#ffffb3" stroke="#000000" points="2344.5772,-122 2157.4228,-122 2157.4228,-86 2344.5772,-86 2344.5772,-122"/>
<text text-anchor="middle" x="2251" y="-99.8" font-family="Times,serif" font-size="14.00" fill="#000000">AmapInfoWindowComponent</text>
</g>
<!-- AmapInfoWindowComponent&#45;&gt;NgxAmapModule -->
<g id="edge3" class="edge">
<title>AmapInfoWindowComponent&#45;&gt;NgxAmapModule</title>
<path fill="none" stroke="#000000" d="M2165.5864,-122.0225C2165.5864,-139.3734 2165.5864,-163 2165.5864,-163 2165.5864,-163 1394.1084,-163 1394.1084,-163"/>
<polygon fill="#000000" stroke="#000000" points="1394.1084,-159.5001 1384.1084,-163 1394.1084,-166.5001 1394.1084,-159.5001"/>
</g>
<!-- AmapPolylineDirective -->
<g id="node4" class="node">
<title>AmapPolylineDirective</title>
<polygon fill="#ffffb3" stroke="#000000" points="2139.4636,-122 1990.5364,-122 1990.5364,-86 2139.4636,-86 2139.4636,-122"/>
<text text-anchor="middle" x="2065" y="-99.8" font-family="Times,serif" font-size="14.00" fill="#000000">AmapPolylineDirective</text>
</g>
<!-- AmapPolylineDirective&#45;&gt;NgxAmapModule -->
<g id="edge4" class="edge">
<title>AmapPolylineDirective&#45;&gt;NgxAmapModule</title>
<path fill="none" stroke="#000000" d="M1996.6432,-122.0352C1996.6432,-138.7344 1996.6432,-161 1996.6432,-161 1996.6432,-161 1394.0152,-161 1394.0152,-161"/>
<polygon fill="#000000" stroke="#000000" points="1394.0152,-157.5001 1384.0152,-161 1394.0152,-164.5001 1394.0152,-157.5001"/>
</g>
<!-- AmapToolBarDirective -->
<g id="node5" class="node">
<title>AmapToolBarDirective</title>
<polygon fill="#ffffb3" stroke="#000000" points="1972.4496,-122 1823.5504,-122 1823.5504,-86 1972.4496,-86 1972.4496,-122"/>
<text text-anchor="middle" x="1898" y="-99.8" font-family="Times,serif" font-size="14.00" fill="#000000">AmapToolBarDirective</text>
</g>
<!-- AmapToolBarDirective&#45;&gt;NgxAmapModule -->
<g id="edge5" class="edge">
<title>AmapToolBarDirective&#45;&gt;NgxAmapModule</title>
<path fill="none" stroke="#000000" d="M1828.1502,-122.0091C1828.1502,-138.0494 1828.1502,-159 1828.1502,-159 1828.1502,-159 1394.1973,-159 1394.1973,-159"/>
<polygon fill="#000000" stroke="#000000" points="1394.1973,-155.5001 1384.1973,-159 1394.1972,-162.5001 1394.1973,-155.5001"/>
</g>
<!-- AmapMarkerClustererDirective -->
<g id="node6" class="node">
<title>AmapMarkerClustererDirective</title>
<polygon fill="#ffffb3" stroke="#000000" points="1805.3025,-122 1610.6975,-122 1610.6975,-86 1805.3025,-86 1805.3025,-122"/>
<text text-anchor="middle" x="1708" y="-99.8" font-family="Times,serif" font-size="14.00" fill="#000000">AmapMarkerClustererDirective</text>
</g>
<!-- AmapMarkerClustererDirective&#45;&gt;NgxAmapModule -->
<g id="edge6" class="edge">
<title>AmapMarkerClustererDirective&#45;&gt;NgxAmapModule</title>
<path fill="none" stroke="#000000" d="M1742.5504,-122.1871C1742.5504,-137.1824 1742.5504,-156 1742.5504,-156 1742.5504,-156 1393.9392,-156 1393.9392,-156"/>
<polygon fill="#000000" stroke="#000000" points="1393.9392,-152.5001 1383.9392,-156 1393.9391,-159.5001 1393.9392,-152.5001"/>
</g>
<!-- AmapAutocompleteDirective -->
<g id="node7" class="node">
<title>AmapAutocompleteDirective</title>
<polygon fill="#ffffb3" stroke="#000000" points="1592.6078,-122 1411.3922,-122 1411.3922,-86 1592.6078,-86 1592.6078,-122"/>
<text text-anchor="middle" x="1502" y="-99.8" font-family="Times,serif" font-size="14.00" fill="#000000">AmapAutocompleteDirective</text>
</g>
<!-- AmapAutocompleteDirective&#45;&gt;NgxAmapModule -->
<g id="edge7" class="edge">
<title>AmapAutocompleteDirective&#45;&gt;NgxAmapModule</title>
<path fill="none" stroke="#000000" d="M1533.0179,-122.0511C1533.0179,-136.373 1533.0179,-154 1533.0179,-154 1533.0179,-154 1394.0532,-154 1394.0532,-154"/>
<polygon fill="#000000" stroke="#000000" points="1394.0532,-150.5001 1384.0532,-154 1394.0531,-157.5001 1394.0532,-150.5001"/>
</g>
<!-- AmapCircleDirective -->
<g id="node8" class="node">
<title>AmapCircleDirective</title>
<polygon fill="#ffffb3" stroke="#000000" points="1393.0031,-122 1256.9969,-122 1256.9969,-86 1393.0031,-86 1393.0031,-122"/>
<text text-anchor="middle" x="1325" y="-99.8" font-family="Times,serif" font-size="14.00" fill="#000000">AmapCircleDirective</text>
</g>
<!-- AmapCircleDirective&#45;&gt;NgxAmapModule -->
<g id="edge8" class="edge">
<title>AmapCircleDirective&#45;&gt;NgxAmapModule</title>
<path fill="none" stroke="#000000" d="M1325,-122.1061C1325,-122.1061 1325,-140.991 1325,-140.991"/>
<polygon fill="#000000" stroke="#000000" points="1321.5001,-140.9909 1325,-150.991 1328.5001,-140.991 1321.5001,-140.9909"/>
</g>
<!-- AmapCircleMarkerDirective -->
<g id="node9" class="node">
<title>AmapCircleMarkerDirective</title>
<polygon fill="#ffffb3" stroke="#000000" points="1238.6975,-122 1061.3025,-122 1061.3025,-86 1238.6975,-86 1238.6975,-122"/>
<text text-anchor="middle" x="1150" y="-99.8" font-family="Times,serif" font-size="14.00" fill="#000000">AmapCircleMarkerDirective</text>
</g>
<!-- AmapCircleMarkerDirective&#45;&gt;NgxAmapModule -->
<g id="edge9" class="edge">
<title>AmapCircleMarkerDirective&#45;&gt;NgxAmapModule</title>
<path fill="none" stroke="#000000" d="M1178.1162,-122.0511C1178.1162,-136.373 1178.1162,-154 1178.1162,-154 1178.1162,-154 1256.1031,-154 1256.1031,-154"/>
<polygon fill="#000000" stroke="#000000" points="1256.1031,-157.5001 1266.1031,-154 1256.103,-150.5001 1256.1031,-157.5001"/>
</g>
<!-- AmapPolygonDirective -->
<g id="node10" class="node">
<title>AmapPolygonDirective</title>
<polygon fill="#ffffb3" stroke="#000000" points="1043.4678,-122 894.5322,-122 894.5322,-86 1043.4678,-86 1043.4678,-122"/>
<text text-anchor="middle" x="969" y="-99.8" font-family="Times,serif" font-size="14.00" fill="#000000">AmapPolygonDirective</text>
</g>
<!-- AmapPolygonDirective&#45;&gt;NgxAmapModule -->
<g id="edge10" class="edge">
<title>AmapPolygonDirective&#45;&gt;NgxAmapModule</title>
<path fill="none" stroke="#000000" d="M989.6613,-122.1871C989.6613,-137.1824 989.6613,-156 989.6613,-156 989.6613,-156 1255.8201,-156 1255.8201,-156"/>
<polygon fill="#000000" stroke="#000000" points="1255.8201,-159.5001 1265.8201,-156 1255.8201,-152.5001 1255.8201,-159.5001"/>
</g>
<!-- AmapTextDirective -->
<g id="node11" class="node">
<title>AmapTextDirective</title>
<polygon fill="#ffffb3" stroke="#000000" points="876.9524,-122 749.0476,-122 749.0476,-86 876.9524,-86 876.9524,-122"/>
<text text-anchor="middle" x="813" y="-99.8" font-family="Times,serif" font-size="14.00" fill="#000000">AmapTextDirective</text>
</g>
<!-- AmapTextDirective&#45;&gt;NgxAmapModule -->
<g id="edge11" class="edge">
<title>AmapTextDirective&#45;&gt;NgxAmapModule</title>
<path fill="none" stroke="#000000" d="M871.8512,-122.0091C871.8512,-138.0494 871.8512,-159 871.8512,-159 871.8512,-159 1255.7587,-159 1255.7587,-159"/>
<polygon fill="#000000" stroke="#000000" points="1255.7587,-162.5001 1265.7587,-159 1255.7587,-155.5001 1255.7587,-162.5001"/>
</g>
<!-- AmapBezierCurveDirective -->
<g id="node12" class="node">
<title>AmapBezierCurveDirective</title>
<polygon fill="#ffffb3" stroke="#000000" points="731.538,-122 558.462,-122 558.462,-86 731.538,-86 731.538,-122"/>
<text text-anchor="middle" x="645" y="-99.8" font-family="Times,serif" font-size="14.00" fill="#000000">AmapBezierCurveDirective</text>
</g>
<!-- AmapBezierCurveDirective&#45;&gt;NgxAmapModule -->
<g id="edge12" class="edge">
<title>AmapBezierCurveDirective&#45;&gt;NgxAmapModule</title>
<path fill="none" stroke="#000000" d="M724.394,-122.0352C724.394,-138.7344 724.394,-161 724.394,-161 724.394,-161 1256.0431,-161 1256.0431,-161"/>
<polygon fill="#000000" stroke="#000000" points="1256.0431,-164.5001 1266.0431,-161 1256.0431,-157.5001 1256.0431,-164.5001"/>
</g>
<!-- AmapEllipseDirective -->
<g id="node13" class="node">
<title>AmapEllipseDirective</title>
<polygon fill="#ffffb3" stroke="#000000" points="540.6783,-122 399.3217,-122 399.3217,-86 540.6783,-86 540.6783,-122"/>
<text text-anchor="middle" x="470" y="-99.8" font-family="Times,serif" font-size="14.00" fill="#000000">AmapEllipseDirective</text>
</g>
<!-- AmapEllipseDirective&#45;&gt;NgxAmapModule -->
<g id="edge13" class="edge">
<title>AmapEllipseDirective&#45;&gt;NgxAmapModule</title>
<path fill="none" stroke="#000000" d="M531.4641,-122.0225C531.4641,-139.3734 531.4641,-163 531.4641,-163 531.4641,-163 1256.0041,-163 1256.0041,-163"/>
<polygon fill="#000000" stroke="#000000" points="1256.0042,-166.5001 1266.0041,-163 1256.0041,-159.5001 1256.0042,-166.5001"/>
</g>
<!-- AmapRectangleDirective -->
<g id="node14" class="node">
<title>AmapRectangleDirective</title>
<polygon fill="#ffffb3" stroke="#000000" points="381.271,-122 222.729,-122 222.729,-86 381.271,-86 381.271,-122"/>
<text text-anchor="middle" x="302" y="-99.8" font-family="Times,serif" font-size="14.00" fill="#000000">AmapRectangleDirective</text>
</g>
<!-- AmapRectangleDirective&#45;&gt;NgxAmapModule -->
<g id="edge14" class="edge">
<title>AmapRectangleDirective&#45;&gt;NgxAmapModule</title>
<path fill="none" stroke="#000000" d="M368.7732,-122.2667C368.7732,-140.5552 368.7732,-166 368.7732,-166 368.7732,-166 1255.9054,-166 1255.9054,-166"/>
<polygon fill="#000000" stroke="#000000" points="1255.9054,-169.5001 1265.9054,-166 1255.9053,-162.5001 1255.9054,-169.5001"/>
</g>
<!-- AmapHeatmapDirective -->
<g id="node15" class="node">
<title>AmapHeatmapDirective</title>
<polygon fill="#ffffb3" stroke="#000000" points="204.3263,-122 51.6737,-122 51.6737,-86 204.3263,-86 204.3263,-122"/>
<text text-anchor="middle" x="128" y="-99.8" font-family="Times,serif" font-size="14.00" fill="#000000">AmapHeatmapDirective</text>
</g>
<!-- AmapHeatmapDirective&#45;&gt;NgxAmapModule -->
<g id="edge15" class="edge">
<title>AmapHeatmapDirective&#45;&gt;NgxAmapModule</title>
<path fill="none" stroke="#000000" d="M189.1389,-122.1686C189.1389,-141.0898 189.1389,-168 189.1389,-168 189.1389,-168 1255.9273,-168 1255.9273,-168"/>
<polygon fill="#000000" stroke="#000000" points="1255.9273,-171.5001 1265.9273,-168 1255.9273,-164.5001 1255.9273,-171.5001"/>
</g>
<!-- NgxAmapComponent  -->
<g id="node17" class="node">
<title>NgxAmapComponent </title>
<polygon fill="#fb8072" stroke="#000000" points="2690.6509,-252 2547.3491,-252 2547.3491,-216 2690.6509,-216 2690.6509,-252"/>
<text text-anchor="middle" x="2619" y="-229.8" font-family="Times,serif" font-size="14.00" fill="#000000">NgxAmapComponent </text>
</g>
<!-- NgxAmapModule&#45;&gt;NgxAmapComponent  -->
<g id="edge16" class="edge">
<title>NgxAmapModule&#45;&gt;NgxAmapComponent </title>
<path fill="none" stroke="#000000" stroke-dasharray="5,2" d="M1384.1988,-171C1636.0588,-171 2605.625,-171 2605.625,-171 2605.625,-171 2605.625,-205.7778 2605.625,-205.7778"/>
<polygon fill="#000000" stroke="#000000" points="2602.1251,-205.7778 2605.625,-215.7778 2609.1251,-205.7778 2602.1251,-205.7778"/>
</g>
<!-- AmapMarkerDirective  -->
<g id="node18" class="node">
<title>AmapMarkerDirective </title>
<polygon fill="#fb8072" stroke="#000000" points="2529.4896,-252 2382.5104,-252 2382.5104,-216 2529.4896,-216 2529.4896,-252"/>
<text text-anchor="middle" x="2456" y="-229.8" font-family="Times,serif" font-size="14.00" fill="#000000">AmapMarkerDirective </text>
</g>
<!-- NgxAmapModule&#45;&gt;AmapMarkerDirective  -->
<g id="edge17" class="edge">
<title>NgxAmapModule&#45;&gt;AmapMarkerDirective </title>
<path fill="none" stroke="#000000" stroke-dasharray="5,2" d="M1383.9855,-173C1614.8027,-173 2444.125,-173 2444.125,-173 2444.125,-173 2444.125,-205.698 2444.125,-205.698"/>
<polygon fill="#000000" stroke="#000000" points="2440.6251,-205.698 2444.125,-215.698 2447.6251,-205.698 2440.6251,-205.698"/>
</g>
<!-- AmapInfoWindowComponent  -->
<g id="node19" class="node">
<title>AmapInfoWindowComponent </title>
<polygon fill="#fb8072" stroke="#000000" points="2364.0777,-252 2173.9223,-252 2173.9223,-216 2364.0777,-216 2364.0777,-252"/>
<text text-anchor="middle" x="2269" y="-229.8" font-family="Times,serif" font-size="14.00" fill="#000000">AmapInfoWindowComponent </text>
</g>
<!-- NgxAmapModule&#45;&gt;AmapInfoWindowComponent  -->
<g id="edge18" class="edge">
<title>NgxAmapModule&#45;&gt;AmapInfoWindowComponent </title>
<path fill="none" stroke="#000000" stroke-dasharray="5,2" d="M1384.1424,-175C1589.4821,-175 2259.125,-175 2259.125,-175 2259.125,-175 2259.125,-205.9775 2259.125,-205.9775"/>
<polygon fill="#000000" stroke="#000000" points="2255.6251,-205.9774 2259.125,-215.9775 2262.6251,-205.9775 2255.6251,-205.9774"/>
</g>
<!-- AmapPolylineDirective  -->
<g id="node20" class="node">
<title>AmapPolylineDirective </title>
<polygon fill="#fb8072" stroke="#000000" points="2155.4643,-252 2002.5357,-252 2002.5357,-216 2155.4643,-216 2155.4643,-252"/>
<text text-anchor="middle" x="2079" y="-229.8" font-family="Times,serif" font-size="14.00" fill="#000000">AmapPolylineDirective </text>
</g>
<!-- NgxAmapModule&#45;&gt;AmapPolylineDirective  -->
<g id="edge19" class="edge">
<title>NgxAmapModule&#45;&gt;AmapPolylineDirective </title>
<path fill="none" stroke="#000000" stroke-dasharray="5,2" d="M1384.1708,-178C1560.6453,-178 2071.125,-178 2071.125,-178 2071.125,-178 2071.125,-205.973 2071.125,-205.973"/>
<polygon fill="#000000" stroke="#000000" points="2067.6251,-205.973 2071.125,-215.973 2074.6251,-205.973 2067.6251,-205.973"/>
</g>
<!-- AmapToolBarDirective  -->
<g id="node21" class="node">
<title>AmapToolBarDirective </title>
<polygon fill="#fb8072" stroke="#000000" points="1985.4503,-252 1832.5497,-252 1832.5497,-216 1985.4503,-216 1985.4503,-252"/>
<text text-anchor="middle" x="1909" y="-229.8" font-family="Times,serif" font-size="14.00" fill="#000000">AmapToolBarDirective </text>
</g>
<!-- NgxAmapModule&#45;&gt;AmapToolBarDirective  -->
<g id="edge20" class="edge">
<title>NgxAmapModule&#45;&gt;AmapToolBarDirective </title>
<path fill="none" stroke="#000000" stroke-dasharray="5,2" d="M1384.1015,-180C1531.3186,-180 1902.625,-180 1902.625,-180 1902.625,-180 1902.625,-205.7181 1902.625,-205.7181"/>
<polygon fill="#000000" stroke="#000000" points="1899.1251,-205.718 1902.625,-215.7181 1906.1251,-205.7181 1899.1251,-205.718"/>
</g>
<!-- AmapMarkerClustererDirective  -->
<g id="node22" class="node">
<title>AmapMarkerClustererDirective </title>
<polygon fill="#fb8072" stroke="#000000" points="1815.3026,-252 1616.6974,-252 1616.6974,-216 1815.3026,-216 1815.3026,-252"/>
<text text-anchor="middle" x="1716" y="-229.8" font-family="Times,serif" font-size="14.00" fill="#000000">AmapMarkerClustererDirective </text>
</g>
<!-- NgxAmapModule&#45;&gt;AmapMarkerClustererDirective  -->
<g id="edge21" class="edge">
<title>NgxAmapModule&#45;&gt;AmapMarkerClustererDirective </title>
<path fill="none" stroke="#000000" stroke-dasharray="5,2" d="M1383.9696,-183C1484.8299,-183 1679.6996,-183 1679.6996,-183 1679.6996,-183 1679.6996,-205.8757 1679.6996,-205.8757"/>
<polygon fill="#000000" stroke="#000000" points="1676.1997,-205.8757 1679.6996,-215.8757 1683.1997,-205.8757 1676.1997,-205.8757"/>
</g>
<!-- AmapAutocompleteDirective  -->
<g id="node23" class="node">
<title>AmapAutocompleteDirective </title>
<polygon fill="#fb8072" stroke="#000000" points="1598.6074,-252 1413.3926,-252 1413.3926,-216 1598.6074,-216 1598.6074,-252"/>
<text text-anchor="middle" x="1506" y="-229.8" font-family="Times,serif" font-size="14.00" fill="#000000">AmapAutocompleteDirective </text>
</g>
<!-- NgxAmapModule&#45;&gt;AmapAutocompleteDirective  -->
<g id="edge22" class="edge">
<title>NgxAmapModule&#45;&gt;AmapAutocompleteDirective </title>
<path fill="none" stroke="#000000" stroke-dasharray="5,2" d="M1384.0112,-185C1425.3483,-185 1473.2321,-185 1473.2321,-185 1473.2321,-185 1473.2321,-205.7542 1473.2321,-205.7542"/>
<polygon fill="#000000" stroke="#000000" points="1469.7322,-205.7542 1473.2321,-215.7542 1476.7322,-205.7542 1469.7322,-205.7542"/>
</g>
<!-- AmapCircleDirective  -->
<g id="node24" class="node">
<title>AmapCircleDirective </title>
<polygon fill="#fb8072" stroke="#000000" points="1395.0022,-252 1254.9978,-252 1254.9978,-216 1395.0022,-216 1395.0022,-252"/>
<text text-anchor="middle" x="1325" y="-229.8" font-family="Times,serif" font-size="14.00" fill="#000000">AmapCircleDirective </text>
</g>
<!-- NgxAmapModule&#45;&gt;AmapCircleDirective  -->
<g id="edge23" class="edge">
<title>NgxAmapModule&#45;&gt;AmapCircleDirective </title>
<path fill="none" stroke="#000000" stroke-dasharray="5,2" d="M1325,-187.1061C1325,-187.1061 1325,-205.991 1325,-205.991"/>
<polygon fill="#000000" stroke="#000000" points="1321.5001,-205.9909 1325,-215.991 1328.5001,-205.991 1321.5001,-205.9909"/>
</g>
<!-- AmapCircleMarkerDirective  -->
<g id="node25" class="node">
<title>AmapCircleMarkerDirective </title>
<polygon fill="#fb8072" stroke="#000000" points="1236.6973,-252 1055.3027,-252 1055.3027,-216 1236.6973,-216 1236.6973,-252"/>
<text text-anchor="middle" x="1146" y="-229.8" font-family="Times,serif" font-size="14.00" fill="#000000">AmapCircleMarkerDirective </text>
</g>
<!-- NgxAmapModule&#45;&gt;AmapCircleMarkerDirective  -->
<g id="edge24" class="edge">
<title>NgxAmapModule&#45;&gt;AmapCircleMarkerDirective </title>
<path fill="none" stroke="#000000" stroke-dasharray="5,2" d="M1265.8751,-185C1205.2059,-185 1119.6338,-185 1119.6338,-185 1119.6338,-185 1119.6338,-205.7542 1119.6338,-205.7542"/>
<polygon fill="#000000" stroke="#000000" points="1116.1339,-205.7542 1119.6338,-215.7542 1123.1339,-205.7542 1116.1339,-205.7542"/>
</g>
<!-- AmapPolygonDirective  -->
<g id="node26" class="node">
<title>AmapPolygonDirective </title>
<polygon fill="#fb8072" stroke="#000000" points="1037.4685,-252 884.5315,-252 884.5315,-216 1037.4685,-216 1037.4685,-252"/>
<text text-anchor="middle" x="961" y="-229.8" font-family="Times,serif" font-size="14.00" fill="#000000">AmapPolygonDirective </text>
</g>
<!-- NgxAmapModule&#45;&gt;AmapPolygonDirective  -->
<g id="edge25" class="edge">
<title>NgxAmapModule&#45;&gt;AmapPolygonDirective </title>
<path fill="none" stroke="#000000" stroke-dasharray="5,2" d="M1266.0093,-183C1158.5996,-183 942.0887,-183 942.0887,-183 942.0887,-183 942.0887,-205.8757 942.0887,-205.8757"/>
<polygon fill="#000000" stroke="#000000" points="938.5888,-205.8757 942.0887,-215.8757 945.5888,-205.8757 938.5888,-205.8757"/>
</g>
<!-- AmapTextDirective  -->
<g id="node27" class="node">
<title>AmapTextDirective </title>
<polygon fill="#fb8072" stroke="#000000" points="866.9532,-252 735.0468,-252 735.0468,-216 866.9532,-216 866.9532,-252"/>
<text text-anchor="middle" x="801" y="-229.8" font-family="Times,serif" font-size="14.00" fill="#000000">AmapTextDirective </text>
</g>
<!-- NgxAmapModule&#45;&gt;AmapTextDirective  -->
<g id="edge26" class="edge">
<title>NgxAmapModule&#45;&gt;AmapTextDirective </title>
<path fill="none" stroke="#000000" stroke-dasharray="5,2" d="M1265.9311,-180C1130.2458,-180 807.875,-180 807.875,-180 807.875,-180 807.875,-205.7181 807.875,-205.7181"/>
<polygon fill="#000000" stroke="#000000" points="804.3751,-205.718 807.875,-215.7181 811.3751,-205.7181 804.3751,-205.718"/>
</g>
<!-- AmapBezierCurveDirective  -->
<g id="node28" class="node">
<title>AmapBezierCurveDirective </title>
<polygon fill="#fb8072" stroke="#000000" points="717.0386,-252 540.9614,-252 540.9614,-216 717.0386,-216 717.0386,-252"/>
<text text-anchor="middle" x="629" y="-229.8" font-family="Times,serif" font-size="14.00" fill="#000000">AmapBezierCurveDirective </text>
</g>
<!-- NgxAmapModule&#45;&gt;AmapBezierCurveDirective  -->
<g id="edge27" class="edge">
<title>NgxAmapModule&#45;&gt;AmapBezierCurveDirective </title>
<path fill="none" stroke="#000000" stroke-dasharray="5,2" d="M1266.1191,-178C1099.6998,-178 637.875,-178 637.875,-178 637.875,-178 637.875,-205.973 637.875,-205.973"/>
<polygon fill="#000000" stroke="#000000" points="634.3751,-205.973 637.875,-215.973 641.3751,-205.973 634.3751,-205.973"/>
</g>
<!-- AmapEllipseDirective  -->
<g id="node29" class="node">
<title>AmapEllipseDirective </title>
<polygon fill="#fb8072" stroke="#000000" points="522.1786,-252 377.8214,-252 377.8214,-216 522.1786,-216 522.1786,-252"/>
<text text-anchor="middle" x="450" y="-229.8" font-family="Times,serif" font-size="14.00" fill="#000000">AmapEllipseDirective </text>
</g>
<!-- NgxAmapModule&#45;&gt;AmapEllipseDirective  -->
<g id="edge28" class="edge">
<title>NgxAmapModule&#45;&gt;AmapEllipseDirective </title>
<path fill="none" stroke="#000000" stroke-dasharray="5,2" d="M1265.9453,-175C1071.0837,-175 460.875,-175 460.875,-175 460.875,-175 460.875,-205.9775 460.875,-205.9775"/>
<polygon fill="#000000" stroke="#000000" points="457.3751,-205.9774 460.875,-215.9775 464.3751,-205.9775 457.3751,-205.9774"/>
</g>
<!-- AmapRectangleDirective  -->
<g id="node30" class="node">
<title>AmapRectangleDirective </title>
<polygon fill="#fb8072" stroke="#000000" points="359.771,-252 198.229,-252 198.229,-216 359.771,-216 359.771,-252"/>
<text text-anchor="middle" x="279" y="-229.8" font-family="Times,serif" font-size="14.00" fill="#000000">AmapRectangleDirective </text>
</g>
<!-- NgxAmapModule&#45;&gt;AmapRectangleDirective  -->
<g id="edge29" class="edge">
<title>NgxAmapModule&#45;&gt;AmapRectangleDirective </title>
<path fill="none" stroke="#000000" stroke-dasharray="5,2" d="M1266.0914,-173C1046.9462,-173 291.375,-173 291.375,-173 291.375,-173 291.375,-205.698 291.375,-205.698"/>
<polygon fill="#000000" stroke="#000000" points="287.8751,-205.698 291.375,-215.698 294.8751,-205.698 287.8751,-205.698"/>
</g>
<!-- AmapHeatmapDirective  -->
<g id="node31" class="node">
<title>AmapHeatmapDirective </title>
<polygon fill="#fb8072" stroke="#000000" points="180.3265,-252 23.6735,-252 23.6735,-216 180.3265,-216 180.3265,-252"/>
<text text-anchor="middle" x="102" y="-229.8" font-family="Times,serif" font-size="14.00" fill="#000000">AmapHeatmapDirective </text>
</g>
<!-- NgxAmapModule&#45;&gt;AmapHeatmapDirective  -->
<g id="edge30" class="edge">
<title>NgxAmapModule&#45;&gt;AmapHeatmapDirective </title>
<path fill="none" stroke="#000000" stroke-dasharray="5,2" d="M1265.8629,-171C1023.1073,-171 115.875,-171 115.875,-171 115.875,-171 115.875,-205.7778 115.875,-205.7778"/>
<polygon fill="#000000" stroke="#000000" points="112.3751,-205.7778 115.875,-215.7778 119.3751,-205.7778 112.3751,-205.7778"/>
</g>
</g>
</svg>
